<?xml version="1.0" encoding="UTF-8"?>
<!-- Uploaded to: SVG Find, www.svgrepo.com, Generator: SVG Find Mixer Tools -->
<svg width="800px" height="800px" version="1.1" viewBox="144 144 512 512" xmlns="http://www.w3.org/2000/svg">
 <defs>
  <clipPath id="b">
   <path d="m262 148.09h272v89.906h-272z"/>
  </clipPath>
  <clipPath id="a">
   <path d="m228 477h344v174.9h-344z"/>
  </clipPath>
 </defs>
 <g clip-path="url(#b)">
  <path d="m270.11 226.34 22.984 10.547v-6.3359c0-5.7461 3.6602-10.746 9.1328-12.438 63.332-19.836 127.61-19.836 190.98 0 5.4727 1.6914 9.1328 6.6914 9.1328 12.438v6.8477l31.332-14.367-135.4-74.938-135.4 74.941 6.9648 3.1875c0.082031 0.039063 0.19922 0.078125 0.27734 0.11719z"/>
 </g>
 <path d="m494.03 316.16v-85.605c0-2.0469-1.3398-3.9375-3.3047-4.5273-30.82-9.6445-61.914-14.484-93.008-14.484s-62.188 4.8398-93.008 14.484c-1.9688 0.58984-3.3047 2.4805-3.3047 4.5273l-0.003906 86.395c64.59-14.602 129.38-14.84 192.63-0.78906z"/>
 <path d="m483.4 372.92c0-0.98438 0.35547-1.8906 0.98438-2.6367 13.383-15.863 13.539-28.141 0.43359-39.793-0.86719-0.74609-1.3789-1.8906-1.3789-3.0703v-5c-56.207-11.297-113.52-11.098-170.79 0.58984v5.0391c0 1.2188-0.55078 2.4023-1.457 3.1875-9.3633 7.8359-13.535 15.117-12.594 21.531 1.6133 10.234 15.98 16.297 16.098 16.336 1.5352 0.62891 2.5586 2.125 2.5586 3.8164 0 33.18 15.863 64.156 41.445 80.805 12.555 8.1875 26.922 12.516 41.605 12.516 45.816 0.042969 83.09-41.836 83.09-93.32z"/>
 <g clip-path="url(#a)">
  <path d="m533.9 505.92c-4.8008-2.5195-53.57-17.988-87.578-28.535l-42.586 88.52c-0.66797 1.418-2.125 2.3633-3.6992 2.3633-1.7305 0.11719-3.0703-0.90625-3.7383-2.3633l-42.039-88.68c-34.086 10.547-83.324 26.176-88.168 28.695-23.066 12.203-37.43 35.977-37.43 62.031v83.953h342.67v-83.914c0-26.098-14.367-49.871-37.43-62.07z"/>
 </g>
 <path d="m286.52 299.39-7.6367-13.305c3.1875-1.8516 5.3516-5.2734 5.3516-9.25 0-3.3438-1.5742-6.3359-4.0156-8.3047v-32.629l-13.305-6.1016v38.652c-2.4414 1.9688-4.0156 4.9609-4.0156 8.3438 0 3.9766 2.2031 7.3984 5.3906 9.25l-7.6367 13.266h25.867z"/>
</svg>